<?xml version="1.0" standalone="no"?>
<!DOCTYPE svg PUBLIC "-//W3C//DTD SVG 20010904//EN"
 "http://www.w3.org/TR/2001/REC-SVG-20010904/DTD/svg10.dtd">
<svg version="1.0" xmlns="http://www.w3.org/2000/svg"
 width="1024.000000pt" height="1024.000000pt" viewBox="0 0 1024.000000 1024.000000"
 preserveAspectRatio="xMidYMid meet">

<g transform="translate(0.000000,1024.000000) scale(0.100000,-0.100000)"
fill="#ffffff" stroke="none">
<path d="M7000 7804 c-291 -54 -429 -107 -700 -274 -159 -98 -221 -129 -330
-168 -120 -42 -251 -62 -404 -62 -138 0 -155 2 -551 50 -294 37 -581 49 -731
31 -415 -49 -761 -203 -1014 -453 -120 -118 -186 -205 -254 -338 -104 -203
-144 -391 -133 -625 7 -153 40 -282 106 -422 87 -180 199 -323 339 -428 139
-105 99 -119 341 122 l210 209 -80 58 c-97 72 -168 156 -219 261 -94 190 -88
375 18 580 44 84 187 232 274 283 210 124 481 183 763 167 66 -4 244 -22 396
-41 398 -49 539 -58 706 -44 309 24 510 92 775 261 132 84 180 109 210 109 13
0 59 -11 103 -25 44 -15 124 -34 177 -43 96 -16 105 -16 435 12 385 32 485 46
548 76 151 73 183 296 57 400 -46 38 -397 187 -642 272 -76 27 -100 30 -230
33 -80 2 -156 1 -170 -1z m491 -207 c104 -70 108 -206 7 -280 -18 -13 -48 -22
-85 -25 -49 -3 -64 0 -93 20 -108 74 -109 212 -1 285 25 17 48 23 86 23 38 0
61 -6 86 -23z"/>
<path d="M2682 6653 c-430 -640 -622 -1212 -639 -1908 -4 -168 -1 -253 11
-359 21 -185 75 -421 137 -603 87 -256 266 -590 417 -780 l42 -52 77 55 c69
49 208 135 298 183 17 9 32 17 34 18 2 1 -31 42 -74 90 -209 239 -384 531
-494 824 -171 457 -219 1016 -131 1534 56 337 149 613 316 948 30 59 52 107
49 107 -2 0 -22 -26 -43 -57z"/>
<path d="M5824 5616 c-347 -74 -647 -233 -1053 -560 -254 -204 -376 -316 -986
-906 -236 -229 -475 -459 -530 -512 l-100 -97 105 -99 105 -99 64 29 c144 64
647 228 701 228 10 0 76 62 148 139 243 256 690 666 937 857 485 377 784 477
1041 350 87 -44 159 -117 206 -213 28 -57 33 -79 36 -158 5 -120 -8 -178 -69
-304 -46 -94 -60 -113 -167 -221 -161 -161 -292 -244 -517 -325 -98 -36 -358
-102 -505 -129 -733 -135 -1080 -213 -1415 -318 -431 -135 -846 -346 -1157
-588 -161 -126 -501 -485 -604 -640 -13 -19 -32 -46 -41 -60 l-18 -25 32 23
c18 13 35 27 38 33 9 13 133 104 255 186 314 209 643 370 995 485 399 130 698
178 1540 248 542 45 834 100 1144 216 516 192 913 558 1065 982 121 337 109
628 -39 927 -136 275 -366 464 -660 541 -85 23 -125 27 -270 30 -149 3 -184 1
-281 -20z"/>
<path d="M7795 3937 c-178 -327 -492 -677 -785 -878 -345 -237 -761 -391
-1225 -453 -331 -45 -749 -24 -1030 50 -91 23 -111 25 -215 19 -303 -17 -646
-66 -620 -88 17 -13 260 -114 344 -142 322 -108 628 -152 985 -142 554 15
1076 171 1518 453 396 254 671 531 899 904 59 97 179 338 173 345 -3 2 -22
-29 -44 -68z"/>
</g>
</svg>
